<svg width="176" height="36" viewBox="0 0 176 36" fill="none" xmlns="http://www.w3.org/2000/svg">
<g clip-path="url(#clip0_140_1157)">
<path d="M23.3684 0.986328V21.5436C23.3684 25.0037 22.5263 27.4462 21.0526 29.278C19.5789 31.1099 17.2632 31.924 14.1053 31.924C11.1579 31.924 8.84211 31.1099 7.36842 29.278C5.89474 27.4462 5.26316 25.0037 5.26316 21.5436V0.986328H0V22.3578C0 26.8356 1.26316 30.0922 3.78947 32.5346C6.31579 34.7735 9.68421 35.9948 14.1053 35.9948C16.2105 35.9948 18.1053 35.5877 20 34.9771C21.6842 34.3665 23.1579 33.3488 24.4211 32.3311C25.6842 31.1099 26.5263 29.6851 27.3684 27.8533C28 26.225 28.4211 24.1896 28.4211 21.9507V0.986328H23.3684Z" fill="black"/>
<path d="M79.579 0.986328V35.3842H84.8421V0.986328H79.579Z" fill="black"/>
<path d="M170.105 0.987305L158.526 21.7481L147.158 0.987305H141.052V35.3851H145.263V6.88989L156.21 25.4118H160.421L171.368 6.88989V35.3851H175.579V0.987305H170.105Z" fill="black"/>
<path d="M169.895 0.783203L158.526 21.3405L147.368 0.986741V0.783203H140.842V35.5881H145.684V8.11055L156 25.8183V26.0218H160.632L171.158 8.31409V35.9952H176V0.783203H169.895ZM175.368 35.181H171.789V5.87164L160.421 25.2077H156.632L145.263 5.87164V35.181H141.684V1.39382H147.158L158.737 22.5617L170.526 1.39382H175.579V35.181H175.368Z" fill="black"/>
<path d="M70.7369 1.19043H64.2106L53.0527 14.0133L42.1053 1.19043H35.7896L49.6843 18.2876L35.7896 35.3847H42.1053L53.2632 22.5619L64.4211 35.3847H70.7369L56.8422 18.2876L70.7369 1.19043Z" fill="black"/>
</g>
<defs>
<clipPath id="clip0_140_1157">
<rect width="176" height="35.619" fill="white" transform="translate(0 0.375977)"/>
</clipPath>
</defs>
</svg>
